<svg width="1440" height="140" viewBox="0 0 1440 140" fill="none" xmlns="http://www.w3.org/2000/svg">
<path d="M0 0H1440V80H0V0Z" fill="#3B3B3B"/>
<path d="M94 80L79.8815 80C76.894 80 75.4002 80 74.0559 80.0458C40.9043 81.175 11.9889 102.894 1.6672 134.418C1.24865 135.696 0.832433 137.131 -1.75318e-06 140V140L0 80L94 80Z" fill="#3B3B3B"/>
<path d="M1346 80L1360.12 80C1363.11 80 1364.6 80 1365.94 80.0458C1399.1 81.175 1428.01 102.894 1438.33 134.418C1438.75 135.696 1439.17 137.131 1440 140L1440 20L1346 80Z" fill="#3B3B3B"/>
</svg>
