<svg width="648" height="566" viewBox="0 0 648 566" fill="none" xmlns="http://www.w3.org/2000/svg">
<path fill-rule="evenodd" clip-rule="evenodd" d="M378.928 377.78L563.38 13.7802L536.62 0.219782L356.333 356H-450V386H365.548H374.763L378.928 377.78ZM406.928 437.78L591.38 73.7802L564.62 60.2198L384.333 416H-422V446H393.548H402.763L406.928 437.78ZM619.38 133.78L434.928 497.78L430.763 506H421.548H-394V476H412.333L592.62 120.22L619.38 133.78ZM462.928 557.78L647.38 193.78L620.62 180.22L440.333 536H-366V566H449.548H458.763L462.928 557.78Z" fill="url(#paint0_linear_108_22)"/>
<defs>
<linearGradient id="paint0_linear_108_22" x1="358.307" y1="325.803" x2="475.505" y2="543.786" gradientUnits="userSpaceOnUse">
<stop stop-color="#3A3A3A"/>
<stop offset="1" stop-color="#3A3A3A" stop-opacity="0"/>
</linearGradient>
</defs>
</svg>
