<svg width="1046" height="903" viewBox="0 0 1046 903" fill="none" xmlns="http://www.w3.org/2000/svg">
<path fill-rule="evenodd" clip-rule="evenodd" d="M273.375 343.611L0.0140272 703.852L23.986 722.147L292.907 367.758H551.341C617.618 367.758 681.982 346.854 735.272 308.021L1123.39 25.195L1105.55 0.886004L717.432 283.712C669.217 318.846 610.983 337.759 551.018 337.759H285.2H277.815L273.375 343.611ZM301.375 403.611L28.014 763.852L51.986 782.147L320.907 427.758H579.341C645.618 427.758 709.982 406.854 763.272 368.021L1151.39 85.195L1133.55 60.886L745.432 343.712C697.217 378.846 638.983 397.759 579.018 397.759H313.2H305.815L301.375 403.611ZM56.014 823.852L329.375 463.611L333.815 457.759H341.2H607.018C666.983 457.759 725.217 438.846 773.432 403.712L1161.55 120.886L1179.39 145.195L791.272 428.021C737.982 466.854 673.618 487.758 607.341 487.758H348.907L79.986 842.147L56.014 823.852ZM357.375 523.611L84.014 883.852L107.986 902.147L376.907 547.758H635.341C701.618 547.758 765.982 526.854 819.272 488.021L1207.39 205.195L1189.55 180.886L801.432 463.712C753.217 498.846 694.983 517.759 635.018 517.759H369.2H361.815L357.375 523.611Z" fill="url(#paint0_linear_103_21)"/>
<defs>
<linearGradient id="paint0_linear_103_21" x1="763.99" y1="375.713" x2="828.729" y2="527.152" gradientUnits="userSpaceOnUse">
<stop stop-color="#3A3A3A"/>
<stop offset="1" stop-color="#3A3A3A" stop-opacity="0"/>
</linearGradient>
</defs>
</svg>
