<svg width="50" height="50" viewBox="0 0 70 70" fill="none" xmlns="http://www.w3.org/2000/svg">
<path d="M36.3854 49.0729L60.8125 24.6458L57.0209 20.8542L32.5938 45.2812L36.3854 49.0729ZM17.3542 55.4167C12.4931 55.1736 8.87155 54.1528 6.4896 52.3542C4.10766 50.5556 2.91669 47.9549 2.91669 44.5521C2.91669 41.3924 4.21752 38.8276 6.81919 36.8579C9.42085 34.8882 13.0297 33.7099 17.6459 33.3229C19.5417 33.1771 20.9641 32.8728 21.9129 32.41C22.8618 31.9472 23.3353 31.3036 23.3334 30.4792C23.3334 29.2153 22.6159 28.2674 21.1809 27.6354C19.7459 27.0035 17.3765 26.5417 14.0729 26.25L14.5834 20.4167C19.5903 20.8056 23.2731 21.8147 25.6317 23.4442C27.9903 25.0736 29.1686 27.4186 29.1667 30.4792C29.1667 33.0555 28.2304 35.0729 26.3579 36.5312C24.4854 37.9896 21.7272 38.8646 18.0834 39.1562C14.9722 39.3993 12.6389 39.971 11.0834 40.8712C9.5278 41.7715 8.75002 42.9985 8.75002 44.5521C8.75002 46.2535 9.43058 47.4814 10.7917 48.2358C12.1528 48.9903 14.4375 49.4394 17.6459 49.5833L17.3542 55.4167ZM37.7709 55.9271L25.7396 43.8958L53.5938 16.0417C54.566 15.0694 55.721 14.5833 57.0588 14.5833C58.3966 14.5833 59.5506 15.0694 60.5209 16.0417L65.625 21.1458C66.5972 22.1181 67.0834 23.2731 67.0834 24.6108C67.0834 25.9486 66.5972 27.1026 65.625 28.0729L37.7709 55.9271ZM26.1771 58.3333C25.3507 58.5278 24.6216 58.309 23.9896 57.6771C23.3577 57.0451 23.1389 56.316 23.3334 55.4896L25.7396 43.8958L37.7709 55.9271L26.1771 58.3333Z" fill="white"/>
</svg>
