<svg width="1440" height="531" viewBox="0 0 1440 531" fill="none" xmlns="http://www.w3.org/2000/svg">
<path fill-rule="evenodd" clip-rule="evenodd" d="M1440 0.384129L1138.17 232.375C1088.9 270.247 1028.39 290.759 965.934 290.759H723.208L0 290.759V320.758L723.514 320.758H966.24C1035.27 320.758 1102.15 298.086 1156.61 256.228L1440 38.4074V0.384129ZM1440 72.6422L1141.16 302.335C1091.89 340.206 1031.38 360.719 968.925 360.719H726.199L0 360.719V390.717L726.505 390.717H969.231C1038.26 390.717 1105.14 368.045 1159.6 326.188L1440 110.666V72.6422ZM1440 144.9L1144.15 372.294C1094.88 410.165 1034.37 430.678 971.916 430.678H729.19L0 430.678V460.676L729.496 460.677H972.221C1041.25 460.677 1108.13 438.005 1162.59 396.147L1440 182.923V144.9ZM1440 217.158L1147.14 442.254C1097.87 480.125 1037.36 500.638 974.906 500.638H732.18L0 500.637V530.636L732.486 530.636H975.212C1044.24 530.636 1111.12 507.964 1165.58 466.106L1440 255.182V217.158Z" fill="url(#paint0_linear_118_13)"/>
<defs>
<linearGradient id="paint0_linear_118_13" x1="1096" y1="164" x2="1150.65" y2="376.961" gradientUnits="userSpaceOnUse">
<stop stop-color="#3A3A3A"/>
<stop offset="1" stop-color="#3A3A3A" stop-opacity="0"/>
</linearGradient>
</defs>
</svg>
